<?xml version="1.0" encoding="UTF-8" standalone="no"?>
<svg
   t="1669449394583"
   class="icon"
   viewBox="0 0 1024 1024"
   version="1.1"
   p-id="10456"
   width="320"
   height="320"
   id="svg2068"
   xmlns="http://www.w3.org/2000/svg"
   xmlns:svg="http://www.w3.org/2000/svg">
  <defs
     id="defs2072" />
  <g
     id="g3085"
     transform="matrix(12.418036,0,0,12.159155,-140.66763,193.15441)"
     style="display:inline;stroke-width:0.984256">
    <path
       d="m 63.896691,-5.3639753 a 1.7278932,1.7278932 0 0 1 -0.431974,-3.40395 c 5.477422,-1.4168727 10.505591,-1.4514307 14.540222,-0.095034 a 1.7278932,1.7278932 0 1 1 -1.097213,3.2743576 c -3.39531,-1.1404092 -7.775519,-1.0799329 -12.570422,0.1641502 a 1.7278932,1.7278932 0 0 1 -0.440613,0.060476 z M 18.997386,52.95242 A 1.7278932,1.7278932 0 0 1 17.355887,51.777453 C 13.58908,40.546147 20.811674,22.895718 34.980398,8.7615512 A 71.828521,71.828521 0 0 1 56.285321,-6.227922 1.7278932,1.7278932 0 1 1 57.676276,-3.0658778 68.355455,68.355455 0 0 0 37.434006,11.20652 C 24.181066,24.450822 17.278132,40.684379 20.638884,50.68024 a 1.7278932,1.7278932 0 0 1 -1.641498,2.28082 z m 14.281037,9.235589 A 20.311385,20.311385 0 0 1 26.798824,61.20311 1.7278932,1.7278932 0 1 1 27.896036,57.928753 C 37.883258,61.289505 54.116815,54.386571 67.369756,41.133631 80.622697,27.88069 87.603386,11.19788 84.069844,1.3920871 a 1.7278932,1.7278932 0 0 1 3.24844,-1.17496803 C 91.352914,11.448425 84.156239,29.237086 69.814725,43.5786 58.168724,55.224599 44.120953,62.188009 33.278423,62.188009 Z"
       p-id="10457"
       fill="#308e20"
       id="path2062"
       style="fill:#6dbb6e;fill-opacity:0.807843;stroke-width:0.0813803" />
    <path
       d="M 71.482142,62.196649 C 60.648251,62.196649 46.660956,55.285076 34.980398,43.5786 20.647524,29.237086 13.450848,11.413867 17.47684,0.22575855 A 1.7278932,1.7278932 0 1 1 20.725279,1.4007258 C 17.191737,11.215159 24.181066,27.932527 37.425366,41.14227 50.669668,54.352014 67.352477,61.384539 77.16691,57.842358 a 1.7278932,1.7278932 0 0 1 1.174968,3.248439 20.199071,20.199071 0 0 1 -6.859736,1.105852 z M 85.797737,52.95242 A 1.7278932,1.7278932 0 0 1 84.156239,50.671601 C 87.516991,40.675739 80.614057,24.450822 67.361117,11.19788 54.108176,-2.05506 37.883258,-8.9493541 27.887396,-5.5886019 A 1.7280283,1.7280283 0 0 1 26.781544,-8.8629595 C 38.01285,-12.629767 55.663279,-5.4071727 69.797446,8.7615512 83.931612,22.930276 91.188764,40.589344 87.421957,51.777452 a 1.7278932,1.7278932 0 0 1 -1.62422,1.174968 z"
       p-id="10458"
       fill="#308e20"
       id="path2064"
       style="fill:#6dbb6e;fill-opacity:0.807843;stroke-width:0.0813803" />
    <path
       d="m 22.461812,2.5324964 c -4.928268,0.00228 -8.275277,-5.0065213 -6.387628,-9.5588896 1.887648,-4.5523688 7.796976,-5.7230098 11.277565,-2.2339817 1.972815,1.9775976 2.561277,4.948299 1.491337,7.5286328 -1.06994,2.58033304 -3.587909,4.262947 -6.381274,4.2642385 z m 0,-10.3673595 c -1.648589,0.0013 -3.066735,1.1669542 -3.38707,2.7839026 -0.32033,1.6169294 0.546381,3.2346906 2.069856,3.8645361 1.523474,0.62984631 3.279547,0.096417 4.194541,-1.2746615 0.915006,-1.3710956 0.734017,-3.1978795 -0.432359,-4.3629596 C 24.25814,-7.471966 23.378619,-7.835584 22.461812,-7.8348631 Z M 82.946713,63.017398 c -4.923797,-0.0039 -8.264438,-5.008505 -6.379678,-9.557234 1.884759,-4.54873 7.786027,-5.72399 11.269616,-2.244276 1.978992,1.976789 2.571382,4.951503 1.500657,7.535619 -1.070724,2.584116 -3.593435,4.268092 -6.390595,4.265891 z m 0,-10.367359 c -1.410955,-0.01894 -2.691697,0.821869 -3.235366,2.124012 -0.543669,1.302145 -0.241044,2.804034 0.764479,3.794023 1.366795,1.309939 3.523143,1.309939 4.889938,0 1.351381,-1.34988 1.351381,-3.54006 0,-4.889939 -0.63946,-0.647945 -1.508761,-1.017397 -2.419051,-1.028096 z M 82.635693,2.8435169 c -3.297176,-0.0026 -6.133469,-2.33390722 -6.774138,-5.5678057 -0.640661,-3.2338579 1.092762,-6.4693799 4.139711,-7.7290722 3.046948,-1.259692 6.559094,-0.192833 8.389082,2.5493238 1.830011,2.7421914 1.468035,6.3957592 -0.864718,8.72591925 C 86.228348,2.1177226 84.469307,2.8449589 82.635693,2.8435169 Z m 0,-10.3673592 c -1.648589,0.0013 -3.066735,1.166954 -3.387069,2.7839032 -0.32033,1.6169286 0.546381,3.2346897 2.069855,3.86453606 1.523474,0.62984551 3.279547,0.0964159 4.194541,-1.27466236 0.915006,-1.3710956 0.734017,-3.1978795 -0.432358,-4.3629595 C 84.432021,-7.1609448 83.5525,-7.5245632 82.635693,-7.5238423 Z M 22.15943,63.319779 c -3.297176,-0.0026 -6.133468,-2.333907 -6.774137,-5.567805 -0.640661,-3.233858 1.092762,-6.46938 4.13971,-7.729073 3.046948,-1.259692 6.559094,-0.192832 8.389082,2.549324 1.830012,2.742191 1.468034,6.395759 -0.864717,8.725919 -1.294026,1.300713 -3.055189,2.028827 -4.889938,2.021635 z m 0,-10.367359 c -1.398579,-0.0011 -2.659935,0.840888 -3.195298,2.132946 -0.535362,1.292057 -0.239167,2.779414 0.750329,3.76781 1.366795,1.309939 3.523144,1.309939 4.889938,0 0.989496,-0.988396 1.285691,-2.475753 0.750329,-3.76781 C 24.819365,53.793308 23.55801,52.95132 22.15943,52.95242 Z"
       p-id="10459"
       fill="#308e20"
       id="path2066"
       style="fill:#6dbb6e;fill-opacity:0.807843;stroke-width:0.0813803" />
    <path
       d="m 904.38,310.67 c 0,0 -383.18,104.33 -426.49,573.33 245.39,23.17 428.81,-197.36 426.49,-319 -2.32,-121.64 0,-254.33 0,-254.33 z"
       fill="#308e20"
       p-id="8521"
       id="path6392"
       style="stroke-width:7.41845;fill:#6dbb6e;fill-opacity:0.80784315"
       transform="matrix(0.03096557,0,0,0.02993087,37.326099,10.408329)" />
    <path
       d="m 512,930.07 a 478.51,478.51 0 0 1 -173,-32 453.26,453.26 0 0 1 -142.26,-87.42 C 155.31,772.99 122.74,729.12 99.9,680.27 A 376.15,376.15 0 0 1 64,519.9 v -374 a 32,32 0 0 1 64,0 v 374 a 312.74,312.74 0 0 0 29.81,133.29 c 19.23,41.13 46.78,78.18 81.91,110.11 a 389.41,389.41 0 0 0 122.28,75.08 420.07,420.07 0 0 0 300,0 389.41,389.41 0 0 0 122.26,-75.08 c 35.13,-31.93 62.68,-69 81.91,-110.11 A 312.74,312.74 0 0 0 896,519.9 v -296 a 32,32 0 1 1 64,0 v 296 A 376.15,376.15 0 0 1 924.17,680.28 C 901.34,729.13 868.76,773 827.33,810.66 A 453.26,453.26 0 0 1 685.07,898.08 478.51,478.51 0 0 1 512,930.07 Z"
       fill="#308e20"
       p-id="8522"
       id="path6394"
       style="stroke-width:7.41845;fill:#6dbb6e;fill-opacity:0.80784315"
       transform="matrix(0.03096557,0,0,0.02993087,37.326099,10.408329)" />
    <path
       d="m 655.22,895.3 a 32,32 0 0 1 -32,-32 C 623.22,705.56 595.35,571.47 540.38,464.76 497,380.58 436.6,313 360.82,263.79 292.92,219.73 224.76,198.72 179.54,188.86 130.05,178.07 96.33,177.86 96,177.86 a 32,32 0 0 1 0,-64 c 2.93,0 57.54,0.3 132.57,21.29 a 616.7,616.7 0 0 1 126,50.63 574.17,574.17 0 0 1 133.6,99.13 c 60.61,60.53 108.11,135.52 141.19,222.87 38.39,101.37 57.85,221 57.85,355.53 a 32,32 0 0 1 -31.99,31.99 z"
       fill="#308e20"
       p-id="8523"
       id="path6396"
       style="stroke-width:7.41845;fill:#6dbb6e;fill-opacity:0.80784315"
       transform="matrix(0.03096557,0,0,0.02993087,37.326099,10.408329)" />
    <path
       d="M 587.74,459.79 A 32,32 0 0 1 561,410.22 c 29.09,-44.31 66.4,-83.38 110.88,-116.13 35.28,-26 75.1,-48 118.36,-65.55 73.57,-29.79 131.89,-36.25 134.33,-36.51 a 32,32 0 0 1 6.84,63.63 c -0.53,0.06 -53.37,6.1 -119,32.94 -38,15.55 -72.86,35 -103.57,57.73 -37.92,28.08 -69.68,61.39 -94.39,99 a 32,32 0 0 1 -26.71,14.46 z M 407.76,715.73 A 32,32 0 0 1 367.4,736.2 C 238.84,694.16 199.18,556.78 197.55,551 a 32,32 0 1 1 61.62,-17.23 0.64,0.64 0 0 1 0,0.07 c 0.72,2.4 9.15,30 29,60.67 26.33,40.77 59.67,68 99.09,80.87 a 32,32 0 0 1 20.5,40.35 z"
       fill="#308e20"
       p-id="8524"
       id="path6398"
       style="stroke-width:7.41845;fill:#6dbb6e;fill-opacity:0.80784315"
       transform="matrix(0.03096557,0,0,0.02993087,37.326099,10.408329)" />
  </g>
</svg>
